<svg width="422" height="411" viewBox="0 0 422 411" fill="none" xmlns="http://www.w3.org/2000/svg">
<path d="M334 200.5C334 266.438 276.978 320 206.5 320C136.022 320 79 266.438 79 200.5C79 134.562 136.022 81 206.5 81C276.978 81 334 134.562 334 200.5Z" stroke="url(#paint0_linear_377_13)" stroke-width="2"/>
<path d="M196.797 169.858C196.894 179.89 187.914 187.581 178.016 185.942V185.942C164.483 183.702 159.732 166.674 170.151 157.752V157.752C180.569 148.829 196.664 156.142 196.797 169.858V169.858Z" fill="#4A8834"/>
<path d="M188.989 168.425C201.037 173.271 197.195 157.609 193.465 148.337C193.211 147.705 192.888 147.109 192.515 146.549C188.537 140.573 180.114 140.544 175.886 146.491L175.003 147.732C173.228 150.228 172.356 153.427 173.797 156.091C175.918 160.01 180.436 164.985 188.989 168.425Z" fill="#B4CC93"/>
<path d="M178.734 177.375C181.67 190.024 166.785 183.82 158.196 178.708C157.611 178.359 157.072 177.949 156.576 177.494C151.283 172.644 152.55 164.317 159.076 161.054L160.438 160.373C163.178 159.003 166.472 158.633 168.883 160.467C172.429 163.164 176.65 168.394 178.734 177.375Z" fill="#B4CC93"/>
<path d="M95.3261 292.057L193.708 201.241C196.138 198.998 199.929 199.164 202.155 201.609C203.895 203.522 204.203 206.34 202.916 208.583L170.52 265.037L158.371 282.823C152.89 290.848 144.958 296.882 135.762 300.024L106.109 310.155C105.093 310.502 104.031 310.696 102.958 310.728C93.0004 311.033 88.0062 298.814 95.3261 292.057Z" fill="#9DC5C5"/>
<path d="M314.16 104.646L209.295 187.892C206.706 189.948 206.286 193.72 208.36 196.295C209.983 198.309 212.72 199.046 215.134 198.119L275.899 174.79L295.341 165.521C304.113 161.338 311.296 154.429 315.815 145.825L330.385 118.083C330.884 117.133 331.238 116.113 331.436 115.057C333.268 105.265 321.962 98.4517 314.16 104.646Z" fill="#9DC5C5"/>
<path d="M244.557 55.4428L199.928 181.676C198.826 184.794 200.474 188.212 203.599 189.292C206.044 190.137 208.754 189.307 210.307 187.239L249.399 135.197L260.948 117.016C266.159 108.813 268.574 99.1436 267.833 89.4539L265.442 58.2098C265.36 57.1393 265.118 56.087 264.725 55.0879C261.076 45.8184 247.878 46.0506 244.557 55.4428Z" fill="#C8E0E0"/>
<path d="M58.5154 213.454L190.11 188.768C193.36 188.158 196.485 190.312 197.071 193.566C197.53 196.111 196.293 198.662 194.011 199.879L136.577 230.503L116.836 239.119C107.929 243.006 98.0032 243.906 88.5428 241.683L58.038 234.516C56.9928 234.27 55.9902 233.87 55.0634 233.327C46.4653 228.296 48.7243 215.291 58.5154 213.454Z" fill="#C8E0E0"/>
<path d="M282.881 294.489L204.198 220.624C200.182 216.855 198.434 211.238 199.579 205.851C201.07 198.838 207.137 193.701 214.3 193.42C219.598 193.212 224.642 195.696 227.706 200.023L289.875 287.812C290.503 288.698 290.823 289.765 290.788 290.85L290.777 291.221C290.679 294.261 287.758 296.405 284.829 295.587C284.1 295.383 283.432 295.007 282.881 294.489Z" fill="#4A8834"/>
<ellipse cx="200.289" cy="192.175" rx="12.5" ry="17.5" transform="rotate(-40.5771 200.289 192.175)" fill="#549A3C"/>
<defs>
<linearGradient id="paint0_linear_377_13" x1="206.5" y1="80" x2="206.5" y2="321" gradientUnits="userSpaceOnUse">
<stop offset="0.145" stop-color="#9EE087"/>
<stop offset="1" stop-color="#51883D"/>
</linearGradient>
</defs>
</svg>
