<svg width="346" height="243" viewBox="0 0 346 243" fill="none" xmlns="http://www.w3.org/2000/svg">
<path d="M185.364 85.2776C178.912 92.9606 167.088 92.9606 160.636 85.2776C151.815 74.7734 159.283 58.75 173 58.75C186.717 58.75 194.185 74.7734 185.364 85.2776Z" fill="#4A8834"/>
<path d="M180.366 79.1108C186.364 90.6275 193.634 76.2334 196.832 66.7642C197.05 66.1189 197.192 65.4565 197.274 64.788C198.139 57.6619 191.76 52.1611 184.681 53.9276L183.203 54.2962C180.231 55.0378 177.488 56.8996 176.85 59.8608C175.911 64.2163 176.107 70.9345 180.366 79.1108Z" fill="#B4CC93"/>
<path d="M166.755 79.2376C160.757 90.7544 153.487 76.3602 150.289 66.891C150.071 66.2457 149.929 65.5833 149.848 64.9148C148.983 57.7887 155.361 52.2879 162.441 54.0544L163.918 54.423C166.89 55.1646 169.633 57.0264 170.271 59.9876C171.21 64.3431 171.014 71.0613 166.755 79.2376Z" fill="#B4CC93"/>
<path d="M28.8068 112.088L162.604 107.105C165.909 106.982 168.681 109.574 168.78 112.879C168.858 115.464 167.259 117.804 164.822 118.67L103.495 140.477L82.6976 146.084C73.3145 148.613 63.3647 148.037 54.3363 144.442L25.2244 132.848C24.2268 132.451 23.2944 131.907 22.4579 131.234C14.6969 124.988 18.8518 112.459 28.8068 112.088Z" fill="#9DC5C5"/>
<path d="M316.924 112.088L183.126 107.105C179.822 106.982 177.05 109.574 176.95 112.879C176.873 115.464 178.472 117.804 180.909 118.67L242.236 140.477L263.033 146.084C272.416 148.613 282.366 148.037 291.394 144.442L320.506 132.848C321.504 132.451 322.436 131.907 323.273 131.234C331.034 124.988 326.879 112.459 316.924 112.088Z" fill="#9DC5C5"/>
<path d="M296.063 29.4425L180.055 96.2908C177.19 97.9416 176.218 101.61 177.889 104.463C179.196 106.695 181.794 107.828 184.319 107.267L247.863 93.1681L268.461 86.8712C277.755 84.0302 285.879 78.257 291.618 70.415L310.126 45.1289C310.76 44.2625 311.261 43.306 311.612 42.2914C314.87 32.8774 304.695 24.4688 296.063 29.4425Z" fill="#C8E0E0"/>
<path d="M51.9767 28.4425L167.985 95.2908C170.85 96.9416 171.822 100.61 170.151 103.463C168.843 105.695 166.246 106.828 163.721 106.267L100.177 92.1681L79.5788 85.8712C70.2853 83.0302 62.1612 77.257 56.4215 69.415L37.9142 44.1289C37.2801 43.2625 36.7791 42.306 36.4279 41.2914C33.1698 31.8774 43.3453 23.4688 51.9767 28.4425Z" fill="#C8E0E0"/>
<path d="M169.678 235.934L157.963 128.65C157.365 123.175 159.691 117.772 164.065 114.425C169.759 110.069 177.708 110.113 183.332 114.559C187.491 117.847 189.706 123.015 189.219 128.294L179.334 235.412C179.234 236.493 178.784 237.512 178.052 238.314L177.802 238.588C175.75 240.833 172.137 240.562 170.444 238.035C170.023 237.407 169.76 236.686 169.678 235.934Z" fill="#4A8834"/>
<ellipse cx="173.5" cy="104.5" rx="12.5" ry="17.5" fill="#549A3C"/>
</svg>
